<?xml version="1.0" encoding="UTF-8" standalone="no"?>
<!-- Created with Inkscape (http://www.inkscape.org/) -->

<svg
   xmlns:dc="http://purl.org/dc/elements/1.1/"
   xmlns:cc="http://creativecommons.org/ns#"
   xmlns:rdf="http://www.w3.org/1999/02/22-rdf-syntax-ns#"
   xmlns:svg="http://www.w3.org/2000/svg"
   xmlns="http://www.w3.org/2000/svg"
   xmlns:sodipodi="http://sodipodi.sourceforge.net/DTD/sodipodi-0.dtd"
   xmlns:inkscape="http://www.inkscape.org/namespaces/inkscape"
   id="svg2"
   version="1.1"
   inkscape:version="0.48.3.1 r9886"
   width="400"
   height="400"
   sodipodi:docname="mes3hacklab.svg">
  <metadata
     id="metadata8">
    <rdf:RDF>
      <cc:Work
         rdf:about="">
        <dc:format>image/svg+xml</dc:format>
        <dc:type
           rdf:resource="http://purl.org/dc/dcmitype/StillImage" />
        <dc:title />
      </cc:Work>
    </rdf:RDF>
  </metadata>
  <defs
     id="defs6">
    <inkscape:perspective
       sodipodi:type="inkscape:persp3d"
       inkscape:vp_x="0 : 0.5 : 1"
       inkscape:vp_y="0 : 1000 : 0"
       inkscape:vp_z="1 : 0.5 : 1"
       inkscape:persp3d-origin="0.5 : 0.33333333 : 1"
       id="perspective10" />
  </defs>
  <sodipodi:namedview
     pagecolor="#ffffff"
     bordercolor="#666666"
     borderopacity="1"
     objecttolerance="10"
     gridtolerance="10"
     guidetolerance="10"
     inkscape:pageopacity="0"
     inkscape:pageshadow="2"
     inkscape:window-width="531"
     inkscape:window-height="394"
     id="namedview4"
     showgrid="false"
     inkscape:zoom="0.4486692"
     inkscape:cx="381.97965"
     inkscape:cy="108.1558"
     inkscape:window-x="77"
     inkscape:window-y="29"
     inkscape:window-maximized="0"
     inkscape:current-layer="svg2" />
  <path
     style="fill:#f2f2f2"
     d="m 198.03009,400.21224 c -3.07187,-1.1956 -21.56458,-18.58983 -35.27162,-33.17656 -1.22217,-1.30061 -5.2314,-5.32175 -8.90939,-8.93587 -3.678,-3.61412 -8.59315,-8.47038 -10.92256,-10.79169 -2.32941,-2.32131 -7.45078,-7.34822 -11.38083,-11.17092 -3.93005,-3.82269 -8.83114,-8.71762 -10.89131,-10.87762 -2.06016,-2.16 -10.50588,-10.46871 -18.76825,-18.46382 C 93.623762,298.80067 81.962554,287.27397 75.972335,281.18089 61.622184,266.58431 44.0833,249.29651 28.010714,233.9059 20.839383,227.03885 12.39238,218.64327 9.2396021,215.24906 L 3.5072752,209.07777 3.228285,204.24436 c -0.368757,-6.38848 0.0338,-7.50421 4.2209742,-11.69963 1.9529461,-1.95678 7.0998698,-7.18664 11.4376128,-11.62192 4.337744,-4.43528 12.319314,-12.36636 17.73683,-17.62461 5.417508,-5.25827 11.215326,-10.89113 12.884039,-12.51748 1.668705,-1.62636 5.127663,-5.17477 7.686572,-7.88536 2.558908,-2.71059 8.969508,-9.21601 14.24579,-14.45648 5.276274,-5.24048 30.807947,-30.670743 56.737057,-56.511705 25.92912,-25.840962 48.93771,-48.757772 51.1302,-50.926244 16.43398,-16.2539264 16.23711,-16.0823646 19.27579,-16.7981793 2.40187,-0.5658118 3.5918,-0.492217 6.09785,0.3771462 3.79213,1.3154564 5.86373,2.9667294 12.76942,10.1784621 2.94163,3.072001 16.16878,16.406326 29.3936,29.631825 13.22491,13.2255 26.07334,26.279283 28.55198,29.008403 2.47871,2.729115 17.37373,17.782072 33.1001,33.451002 15.72622,15.66894 30.63732,30.55888 33.13556,33.08876 8.33492,8.44053 28.05262,28.11437 40.96377,40.87276 18.00521,17.79221 17.41542,16.99678 17.39725,23.46143 -0.0211,7.61577 1.2362,6.00414 -23.94593,30.68896 -8.26236,8.0992 -16.69337,16.49752 -18.73544,18.66294 -2.04216,2.16541 -5.48554,5.56346 -7.65193,7.55123 -2.1664,1.98777 -8.23218,7.90178 -13.47954,13.14226 -5.24735,5.24047 -11.81803,11.59804 -14.6014,14.12793 -2.78329,2.52988 -5.35582,5.09002 -5.71666,5.68921 -0.58183,0.96609 -16.5964,16.93867 -25.89847,25.8306 -1.9029,1.81893 -18.06688,17.94435 -35.92006,35.83425 -39.90995,39.99208 -42.56607,42.56994 -45.44453,44.10556 -2.67798,1.42865 -7.33849,1.56393 -10.56863,0.30676 z m 8.45136,-7.31075 c 1.59021,-0.97442 44.96148,-43.86931 50.68918,-50.13244 l 2.80606,-3.06839 0.0105,-44.54487 0.0105,-44.54486 -12.58133,-11.84697 c -6.91974,-6.51583 -12.68665,-12.19661 -12.81531,-12.62395 -0.27266,-0.90562 9.50029,7.98226 19.95167,18.14479 l 7.29537,7.09375 3.33507,-0.19406 c 3.82833,-0.22277 4.88261,-1.46284 1.81599,-2.13616 -1.30448,-0.28644 -7.54963,-5.20537 -16.785,-13.22068 -8.08917,-7.02049 -14.94783,-12.76453 -15.24152,-12.76453 -0.29362,0 -3.9938,2.94891 -8.22257,6.55312 l -7.68866,6.55311 -16.39411,0.018 -16.39412,0.018 -7.09948,-5.73387 c -3.90473,-3.15362 -7.61592,-5.98668 -8.24709,-6.29569 -1.29506,-0.63405 -0.69462,-1.14776 -18.09114,15.47829 l -11.51554,11.00555 0.0743,39.59215 c 0.0409,21.77569 0.29437,41.12606 0.56335,43.00082 0.46858,3.26587 0.99492,3.91275 12.56506,15.44216 6.64179,6.61841 19.38621,19.32298 28.32092,28.23235 8.93478,8.90938 16.68278,16.35249 17.21789,16.54023 1.93196,0.67782 4.80305,0.42474 6.41977,-0.56587 l 2.4e-4,0 z m 64.21288,-63.55036 c 3.0688,-2.98165 18.90235,-18.72956 35.18567,-34.99536 16.28334,-16.26579 32.86441,-32.82503 36.84687,-36.79831 3.98254,-3.97328 12.2754,-12.25106 18.42869,-18.39507 6.15321,-6.144 15.20051,-15.16287 20.10497,-20.04194 4.90448,-4.87906 9.53899,-9.75812 10.29905,-10.84236 1.85633,-2.64822 1.74569,-5.56577 -0.30255,-7.97587 -2.12906,-2.50522 -27.83104,-28.35431 -48.25975,-48.53596 -4.95743,-4.89747 -9.85852,-9.8931 -10.89131,-11.10142 -1.91973,-2.24596 -4.53522,-4.89269 -22.9093,-23.18312 -5.78366,-5.75732 -11.88571,-11.91018 -13.56012,-13.67301 l -3.04431,-3.20516 -3.3911,3.8967 c -1.86512,2.14317 -5.22723,6.21595 -7.47144,9.05061 l -4.08033,5.15392 -0.22917,24.4821 -0.22917,24.48212 -8.40869,0.42389 c -4.62482,0.23314 -11.53539,0.42524 -15.35674,0.42688 l -6.9479,0.003 0,3.51607 c 0,4.95804 1.19174,7.62628 4.61251,10.32754 l 2.96859,2.34412 -2.01917,4.76572 c -2.31783,5.47043 -3.5912,6.43359 -9.64572,7.29565 -5.25246,0.74786 -8.05971,2.22039 -13.07181,6.85662 -4.43239,4.1 -5.37813,5.84965 -5.37813,9.94928 0,1.67432 -0.35018,2.91423 -0.82301,2.91423 -0.45263,0 -1.72053,0.55915 -2.81762,1.24256 -2.98985,1.86252 -11.67127,3.61967 -13.54623,2.74182 -1.09011,-0.51038 -2.04298,-0.4906 -3.45359,0.0717 -2.61279,1.04147 -13.20763,-0.1864 -18.3689,-2.12885 -5.37281,-2.02202 -9.06272,-5.76375 -9.06272,-9.18997 0,-3.5383 -1.42515,-5.76336 -5.99232,-9.35569 -3.66866,-2.88561 -5.18063,-3.64416 -14.42228,-7.23569 -3.73678,-1.45221 -4.36461,-1.97021 -5.06589,-4.17962 -1.09215,-3.44087 -1.01169,-5.55093 0.31782,-8.33464 1.68308,-3.52401 1.66774,-41.53006 -0.0175,-43.15908 -1.03311,-0.99869 -0.93091,-1.46056 1.05341,-4.76067 l 2.19751,-3.65467 -1.72169,-0.37803 c -2.2387,-0.49155 -2.97761,-2.25797 -1.52992,-3.65743 0.73673,-0.71219 1.1448,-2.40911 1.1448,-4.76063 l 0,-3.65396 -8.20992,-0.24584 c -4.51544,-0.1352 -8.48701,-0.48809 -8.82571,-0.78419 -0.33869,-0.29609 -0.73383,-3.00264 -0.87808,-6.01455 -0.2465,-5.14654 -0.37085,-5.50003 -2.0656,-5.87215 -2.26775,-0.49792 -2.32135,-1.4104 -0.11328,-1.92808 3.36196,-0.7882 9.57684,-0.22282 9.57684,0.87122 0,0.26125 -0.84501,0.81182 -1.87781,1.2235 -1.67296,0.66685 -1.87781,1.1443 -1.87781,4.37671 l 0,3.62821 7.13568,0 7.13569,0 0,-25.682161 c 0,-20.250351 -0.19859,-25.625573 -0.93891,-25.414607 -0.5164,0.14716 -3.72746,3.035125 -7.13568,6.417706 l -6.19678,6.150142 0,11.996547 0,11.996554 2.75865,0.203942 c 1.51727,0.112175 2.89746,0.573574 3.0671,1.025339 0.23316,0.620945 -1.55511,0.821391 -7.328,0.821391 -5.77289,0 -7.56117,-0.200446 -7.32799,-0.821391 0.16963,-0.451765 1.54982,-0.913164 3.06708,-1.025339 l 2.75866,-0.203942 -0.0298,-10.309863 -0.0298,-10.309858 -3.46335,3.285564 c -4.16358,3.94986 -11.72427,11.428132 -23.98543,23.723996 -5.00824,5.0224 -14.303406,14.2562 -20.655925,20.51954 -6.352533,6.26335 -13.747091,13.64862 -16.432362,16.41171 -2.68527,2.7631 -15.836055,15.972 -29.223978,29.3531 -33.8709386,33.85372 -32.6500984,32.32798 -29.457579,36.81444 1.943918,2.73178 37.869791,38.7394 53.092523,53.21333 10.703141,10.17666 57.047831,56.04609 66.054561,65.37719 2.0656,2.13998 4.68514,4.51952 5.82121,5.28786 l 2.0656,1.39699 0,-38.81735 0,-38.81735 -3.65041,0 c -3.11699,0 -29.01318,-1.55258 -30.22541,-0.0348 -4.27369,5.35113 -9.660529,8.05023 -16.066606,8.05023 -15.979609,0 -23.878826,-17.07213 -12.85071,-27.77351 1.490787,-1.44663 4.062554,-3.16892 5.715028,-3.82732 3.898975,-1.55347 10.372393,-1.55347 14.271367,0 3.718799,1.48169 8.280021,5.81998 10.166041,9.6692 2.38935,4.87645 28.29038,6.30655 44.09535,-7.8958 7.74596,-6.96053 14.08358,-12.99855 14.08358,-13.41783 0,-0.99037 -16.35272,-16.56063 -22.52448,-21.4467 -2.6246,-2.07816 -5.39478,-3.77821 -6.15597,-3.77821 -0.93864,0 -40.186312,1.15565 -41.504601,3.59143 -6.980568,12.8979 -24.30676,13.82733 -32.429466,1.73962 -2.705446,-4.02608 -3.411517,-10.58223 -0.395264,-15.51631 3.016253,-4.93408 9.259405,-8.87102 16.435505,-8.87102 5.579834,0 8.552514,1.33295 13.379554,5.99939 3.642495,3.5213 42.437722,3.8573 45.275432,3.8573 2.3626,0 3.63082,0.43361 5.28535,1.80707 2.25237,1.86973 26.94838,25.51392 29.68441,28.42012 3.75687,3.99055 -11.85552,-9.76215 -20.73719,-18.26706 l -9.81229,-9.39604 -3.46077,0.19646 c -3.94822,0.22413 -4.6229,1.34871 -1.10345,1.83924 1.92375,0.26813 6.37476,4.03425 24.19996,20.47626 26.01043,23.99206 24.87457,23.30053 39.3664,23.96753 7.99842,0.36812 10.36619,0.24786 14.27144,-0.72491 4.68175,-1.16617 4.68348,-1.16754 28.34248,-22.10518 15.95944,-14.12374 24.45474,-21.17652 26.10075,-21.66888 3.10439,-0.92861 2.45279,-1.91616 -1.26422,-1.91616 -2.75407,0 -3.3929,0.49346 -16.29264,12.58504 -7.38438,6.92177 -14.38223,13.57703 -15.55069,14.78948 -1.16844,1.21245 -2.79958,2.52054 -3.62469,2.90686 -1.31883,0.61748 -1.41016,0.55735 -0.75511,-0.49728 0.73032,-1.17582 22.34326,-22.1586 29.83166,-28.96192 3.31322,-3.01002 4.17641,-3.45192 6.7602,-3.46069 3.47552,-0.0118 38.42075,-0.18095 41.25811,-3.50889 1.18783,-1.39331 3.7026,-3.38928 5.58838,-4.43551 2.97993,-1.65327 4.15063,-1.90223 8.94498,-1.90223 6.64182,0 10.05441,1.30591 14.02959,5.36881 3.51518,3.59265 4.43764,6.43191 4.08341,12.56844 -0.24517,4.24755 -0.61968,5.39248 -2.54954,7.79467 -3.58685,4.46469 -7.56631,6.54502 -13.28875,6.94687 -8.72506,0.61271 -14.52051,-2.2669 -18.66131,-9.27227 -1.41264,-2.38996 -37.55088,-4.34648 -37.98705,-4.34782 -1.76116,-0.005 -6.56265,3.87633 -18.4667,14.92933 l -12.49954,11.60594 12.04376,10.9903 c 16.30083,14.87504 45.59823,12.46095 47.90245,8.48434 3.42972,-5.91909 5.22655,-7.72747 9.62454,-9.6865 9.39469,-4.1847 19.16862,-1.19495 24.03756,7.3529 2.73582,4.8029 2.62991,8.97276 -0.36099,14.20884 -2.68437,4.69962 -4.51283,6.11993 -10.33863,8.03074 -7.196,2.36025 -12.15552,0.96589 -18.9876,-5.33832 -3.82262,-3.52728 -32.61955,-0.78273 -35.43822,-0.78273 l -3.10823,0 0.008,37.29115 c 0.008,35.92304 0.29248,44.19084 1.52981,44.19084 0.31675,0 3.08674,-2.43953 6.15554,-5.42118 l -7.5e-4,0 -2.2e-4,0 0,3e-5 z M 202.9109,229.96118 c -1.64977,-1.73901 0.29617,-6.89806 2.60189,-6.89806 1.05639,0 2.65748,2.76744 2.65748,4.59346 0,0.68532 -0.75119,1.70636 -1.66937,2.26897 -2.06754,1.2669 -2.41869,1.27038 -3.59,0.0356 l 0,2e-5 z m -8.82421,-0.0928 c -0.51639,-0.18899 -0.9389,-0.86494 -0.9389,-1.50211 0,-1.50911 2.16999,-5.30311 3.03311,-5.30311 1.18204,0 2.32188,2.62478 2.08197,4.79444 -0.23262,2.10385 -1.82576,2.87091 -4.17618,2.01078 z m 16.75278,-0.17717 c -0.83608,-1.1835 0.25606,-5.4457 1.31733,-5.14106 1.31709,0.37808 1.49541,3.25071 0.2912,4.69144 -0.76141,0.91096 -1.19669,1.03262 -1.60853,0.44962 z m -22.07886,-1.81554 c -0.55387,-1.14794 -0.7738,-2.73013 -0.48875,-3.51598 0.83863,-2.31154 1.99507,-0.49443 1.73179,2.72116 l -0.23592,2.882 -1.00712,-2.08718 z m 27.67204,-2.05846 c 0,-1.01516 0.49627,-2.41974 1.10287,-3.12128 1.04497,-1.20871 1.10401,-1.16646 1.12669,0.80633 0.0278,2.44357 -0.61525,4.1607 -1.55873,4.1607 -0.36895,0 -0.67083,-0.83058 -0.67083,-1.84575 z m -34.55175,-1.76837 c -1.40144,-1.26495 -2.16371,-2.2999 -1.69393,-2.2999 0.46978,0 1.07665,0.31496 1.3486,0.69992 0.32368,0.45817 0.98756,0.30951 1.92218,-0.4304 1.38102,-1.09341 1.42766,-1.04116 1.42766,1.59997 0,1.50167 -0.10268,2.7303 -0.22826,2.7303 -0.12551,0 -1.37478,-1.03495 -2.77625,-2.29989 z m 40.21741,-1.97134 c 0.50039,-2.2306 2.26854,-4.12029 3.14104,-3.357 0.31901,0.2791 0,0.87972 -0.71319,1.33472 -0.71131,0.455 -1.64804,1.53971 -2.08166,2.41045 -0.7319,1.4695 -0.75676,1.44163 -0.34619,-0.38817 z M 95.717326,256.482 c 9.821904,-4.44339 8.795704,-19.26577 -1.571756,-22.70225 -2.942276,-0.97527 -9.09923,-0.87523 -12.028292,0.19544 -7.485189,2.73607 -10.281543,12.46377 -5.427491,18.88068 2.819053,3.72671 7.009013,5.35084 12.641206,4.90006 2.38579,-0.19095 5.259643,-0.76422 6.386333,-1.27393 z m 224.727084,-0.38171 c 3.02012,-0.73401 6.9974,-4.0298 8.18297,-6.78095 0.43851,-1.01741 0.79724,-3.70891 0.79724,-5.98112 0,-4.7215 -1.66223,-7.53175 -5.95018,-10.05973 -2.03239,-1.19816 -3.56867,-1.49414 -7.75544,-1.49414 -9.00042,0 -14.04332,3.4629 -14.66999,10.07353 -1.02047,10.76507 7.61416,17.10566 19.3954,14.24241 z M 140.70994,249.1834 c 5.39766,-4.60864 25.82728,-24.36555 26.7358,-25.85542 2.42426,-3.97553 -1.90801,-0.74121 -16.36248,12.21566 -10.77661,9.66005 -15.89317,13.80404 -17.04375,13.80404 -1.72451,0 -2.78125,0.8351 -1.96279,1.55113 0.26419,0.23111 1.75196,0.42021 3.30616,0.42021 2.17429,0 3.40253,-0.4924 5.32706,-2.13562 z M 85.264219,201.04221 c 6.274529,-3.63258 7.863247,-12.70768 3.131642,-17.8886 -3.415792,-3.74015 -6.475551,-4.88446 -12.375942,-4.62845 -4.082842,0.17715 -3.216405,-0.95148 -7.780786,2.0942 -4.564381,3.04568 -7.526305,13.5773 -1.500063,19.0057 1.454477,1.31018 3.733825,2.67474 5.065216,3.03233 3.978398,1.06858 10.091365,0.33502 13.459933,-1.61518 z m 244.591811,0.68715 c 7.04149,-3.21955 9.55919,-11.7755 5.25705,-17.86526 -4.44666,-6.29427 -15.95486,-7.16907 -21.83768,-1.65998 -4.18391,3.91807 -5.34612,8.65228 -3.21803,13.10813 2.54924,5.33756 8.05799,8.32894 14.16523,7.69213 2.0269,-0.21136 4.56195,-0.78512 5.63343,-1.27502 z m -120.00399,-2.38025 c 2.75355,-2.91747 3.19912,-6.11179 1.76252,-12.63406 -0.73115,-3.31964 -2.01287,-7.49977 -2.84826,-9.28918 -1.90013,-4.07005 -2.53234,-14.74175 -1.74404,-29.43788 l 0.55508,-10.34953 3.67653,0 3.67653,0 0,-57.711226 0,-57.711216 -4.86316,-4.966321 c -4.84701,-4.949802 -6.08028,-5.776903 -8.61389,-5.776903 -1.05098,0 -1.43729,0.736279 -1.80984,3.449843 -0.26049,1.897414 -0.47658,25.080716 -0.4802,51.518448 l -0.008,48.068615 2.62894,1.35697 c 1.44591,0.74633 2.62893,1.63888 2.62893,1.98343 0,0.34456 -1.68605,1.11639 -3.74676,1.71519 -4.82845,1.40302 -5.20868,2.04809 -1.46612,2.48724 3.10793,0.3647 5.46706,1.55224 4.84183,2.4373 -0.195,0.27602 -1.88127,0.83817 -3.74737,1.24923 -1.86601,0.41107 -3.39283,0.98671 -3.39283,1.2792 0,0.29249 1.60554,0.95356 3.56784,1.46905 1.96232,0.51548 3.56785,1.21832 3.56785,1.56186 0,0.34353 -1.83312,1.23662 -4.07365,1.98462 -4.69889,1.56873 -5.3734,2.44274 -2.70592,3.50601 l 1.89726,0.75626 0,16.80304 0,16.80303 -2.72823,2.43161 c -3.95122,3.52149 -4.85017,5.97324 -5.76489,15.72286 l -0.81805,8.71933 2.42479,2.18867 2.42492,2.18867 6.92522,-0.21011 c 5.95762,-0.18074 7.10782,-0.40349 8.2315,-1.59405 l 7.5e-4,0 2.3e-4,0 z m 23.1384,-23.80117 c 0.0225,-5.07145 0.39914,-8.16949 1.21299,-9.98218 2.6073,-5.80752 1.98041,-10.21762 -1.82449,-12.83597 -3.67254,-2.52726 -9.61003,-0.9931 -11.80294,3.04971 -1.47378,2.71702 -1.43991,4.97282 0.12003,8.0003 0.7995,1.55176 1.4161,5.04761 1.69003,9.58211 l 0.43122,7.13905 4.50674,1.48505 c 2.47872,0.81677 4.76025,1.35693 5.07009,1.20036 0.30984,-0.15658 0.57815,-3.59387 0.59633,-7.63843 z m 7.12914,5.43438 c 1.87533,-1.81281 3.28257,-5.82749 3.33094,-9.50255 0.0883,-6.71594 -1.08763,-6.24257 15.50839,-6.24257 l 14.55935,0 0,-23.30348 0,-23.30348 8.37872,-10.25906 8.37879,-10.259064 -2.34568,-2.052131 c -1.29014,-1.128676 -2.47834,-1.919446 -2.64043,-1.757277 -0.1621,0.162175 -4.31348,5.469623 -9.22539,11.794332 l -8.93057,11.49948 -0.23435,21.52044 c -0.21377,19.63372 -0.34544,21.52825 -1.50225,21.60944 -0.69734,0.0489 -6.62394,0.27072 -13.17021,0.49284 l -11.90225,0.40384 -0.93981,2.39701 c -0.51684,1.31836 -1.66742,3.20637 -2.55682,4.19557 -1.4037,1.56116 -1.61718,2.64219 -1.61718,8.18995 l 0,6.3914 1.83282,-0.30653 c 1.00809,-0.16859 2.39226,-0.84727 3.07593,-1.50816 z m -62.07917,-0.99198 c 2.29248,-0.91818 5.95349,-2.84862 8.13551,-4.28989 l 3.96737,-2.62047 0,-7.55662 c 0,-11.58449 -1.82066,-14.08553 -10.25369,-14.08553 -3.12069,0 -5.03014,-0.32248 -5.7767,-0.9756 -1.66366,-1.45544 -2.01652,-7.53369 -2.20354,-37.95867 l -0.16864,-27.434792 3.89096,3.28e-4 3.89097,3.36e-4 -0.69869,2.131279 c -0.38427,1.172204 -0.69869,13.295939 -0.69869,26.941629 l 0,24.81034 5.70534,0 c 6.08283,0 9.67899,1.17736 10.49892,3.43729 0.73813,2.03456 1.82275,0.5582 1.82275,-2.48108 0,-2.66374 -0.25215,-3.05489 -2.99218,-4.64119 -1.64571,-0.95276 -2.82295,-1.97183 -2.61616,-2.2646 0.20686,-0.29277 2.24473,-0.89816 4.52876,-1.34531 2.28394,-0.44716 4.30769,-1.03244 4.49713,-1.30062 0.18943,-0.26818 -1.09349,-0.69604 -2.85097,-0.95079 -1.75756,-0.25474 -4.04053,-0.84866 -5.07333,-1.3198 l -1.8778,-0.85663 2.25337,-0.77626 c 1.23936,-0.42695 3.52089,-0.93312 5.07009,-1.12484 3.96481,-0.49065 3.50257,-1.26124 -1.32333,-2.20605 -5.76608,-1.12888 -6.66022,-2.28571 -2.48787,-3.21871 1.78632,-0.39945 4.1945,-1.05022 5.35153,-1.44617 l 2.10375,-0.71991 -2.10375,-1.91904 c -2.02751,-1.84955 -2.11276,-2.20308 -2.35432,-9.76316 l -0.25073,-7.844122 -2.37829,-0.01005 c -4.90326,-0.02076 -4.59192,2.428702 -4.90146,-38.56814 l -0.28182,-37.318338 -4.69198,4.414116 c -3.45924,3.254352 -4.8154,5.067175 -5.16157,6.899685 -0.76018,4.024047 -0.55327,17.247168 0.29147,18.628032 0.72313,1.182067 0.4997,1.271086 -3.19228,1.271835 l -3.96982,6.57e-4 0.20004,-7.393328 0.20006,-7.393327 -4.14346,3.884779 -4.14345,3.884779 0,26.758606 0,26.758606 -1.69003,0.39622 c -0.92952,0.21792 -2.61955,0.40026 -3.75563,0.4052 l -2.06559,0.009 0,10.90526 c 0,9.20099 0.20543,11.21164 1.31447,12.86582 1.289,1.92259 1.27983,1.98521 -0.47375,3.23328 l -1.78822,1.27271 2.39561,3.93207 2.3956,3.93207 -1.92185,0 -1.92186,0 0.008,16.5921 c 0.007,16.00269 0.0697,16.70881 1.76126,19.87766 2.04671,3.83404 5.33685,7.4332 7.55919,8.2692 2.35751,0.88683 7.70284,0.13928 12.36997,-1.72998 l -1.8e-4,0 z m 1.90823,-110.691616 c 0,-8.131771 0.10782,-11.458405 0.23961,-7.39252 0.13178,4.065886 0.13178,10.719154 0,14.785039 -0.13179,4.065886 -0.23961,0.739252 -0.23961,-7.392519 z m -9.76669,0 c 0,-7.770359 0.10866,-10.949143 0.24145,-7.063963 0.1328,3.88518 0.1328,10.242746 0,14.127926 -0.13279,3.885179 -0.24145,0.706396 -0.24145,-7.063963 z m 50.00639,105.316686 c 0,-2.91266 -0.49153,-4.44841 -2.34163,-7.31627 -2.30249,-3.5691 -2.34824,-3.81445 -2.73898,-14.67389 l -0.39733,-11.04412 -1.82742,0 -1.82734,0 0.24735,15.63712 c 0.2173,13.73582 0.41215,15.85692 1.60268,17.44486 1.49383,1.99262 5.69615,4.49656 6.66623,3.97207 0.33905,-0.18331 0.61644,-1.9922 0.61644,-4.01977 z m 23.1109,-32.22153 0.20168,-15.26923 -1.96059,0 -1.96066,0 2.64614,-4.21137 2.64599,-4.21138 -1.74314,-0.38274 c -2.46879,-0.54208 -3.01508,-2.30686 -1.17761,-3.80444 1.48692,-1.21194 1.52216,-1.9525 1.52216,-32.015585 l 0,-30.774947 -3.64739,-3.991697 -3.64731,-3.991698 -0.47937,5.386447 c -0.26365,2.962547 -0.48132,14.592609 -0.4838,25.844582 l -0.008,20.458137 -1.69003,0.396219 c -0.92952,0.217925 -2.82919,0.400267 -4.22147,0.405202 l -2.53144,0.0089 0.32599,3.94267 c 0.31975,3.86773 0.28933,3.94269 -1.59974,3.9429 l -1.92574,2.1e-4 0.21197,-36.456475 0.21204,-36.456475 -2.63284,-2.477677 -2.63284,-2.477669 -0.0203,58.555606 c -0.0188,55.00905 0.19604,64.65305 1.44238,64.65305 0.27904,0 1.26655,-0.61875 2.19441,-1.37498 1.65578,-1.34952 1.68275,-1.61739 1.45613,-14.45724 l -0.23089,-13.08222 1.87781,3.1e-4 1.87781,3e-4 -0.25418,13.05008 -0.25411,13.05007 3.25861,0.71792 c 3.93446,0.8668 8.31194,4.60001 9.62716,8.21016 0.63695,1.74827 1.28465,2.43739 2.15355,2.29125 1.10655,-0.18612 1.26467,-1.8809 1.44418,-15.47823 l 0.003,0 -8e-5,0 z m -15.31873,-30.05427 c 0,-3.97553 0.12063,-5.6866 0.27183,-3.80239 0.1512,1.88422 0.15263,5.13693 0,7.22825 -0.14947,2.09131 -0.27318,0.54968 -0.27491,-3.42586 l 0.003,0 8e-5,0 z m -5.26449,0 c 0,-3.61412 0.12259,-5.17646 0.27672,-3.47186 0.1542,1.70459 0.15579,4.66159 0,6.57112 -0.1524,1.90953 -0.27851,0.51486 -0.28046,-3.09926 l 0.003,0 z m 41.78874,25.65665 0,-20.0127 8.97429,-11.88877 c 4.93579,-6.538826 9.19173,-12.488287 9.45756,-13.22102 0.44669,-1.231166 -0.0225,-2.467038 -0.69735,-1.835566 -0.67826,0.634995 -15.37386,19.223826 -20.82747,26.345206 l -5.92059,7.73117 0,4.86558 0,4.86557 -2.34726,0.41069 c -1.29097,0.22589 -3.319,0.4107 -4.50675,0.4107 l -2.15949,0 0,11.17092 0,11.17092 9.0135,0 9.01356,0 0,-20.0127 z m -12.01807,-9.51504 0,-3.90033 13.94831,-18.12692 13.94831,-18.126928 -3.24478,-2.853289 c -1.7846,-1.56931 -5.061,-4.838374 -7.28087,-7.264593 -2.2198,-2.426218 -4.29186,-4.166883 -4.6044,-3.86814 -0.31261,0.298736 -4.66501,5.840071 -9.67201,12.314071 l -9.10355,11.770908 0,7.755081 c 0,7.08255 0.13032,7.81608 1.50225,8.45843 1.93407,0.90554 1.91356,2.30192 -0.0518,3.5061 -1.55311,0.95167 -1.55273,0.95418 0.73745,4.92311 l 2.29131,3.97095 -2.05192,0.20677 c -1.48701,0.14984 -2.1199,0.62695 -2.29905,1.73306 -0.41417,2.55753 0.38713,3.40206 3.22811,3.40206 l 2.65252,0 0,-3.90034 1.5e-4,0 z M 160.67112,74.774484 c -0.20147,-23.936438 -0.50201,-26.21206 -2.96314,-22.436348 -0.75132,1.152635 -1.04593,6.861171 -1.22296,23.695994 l -0.23319,22.177558 2.30828,0 2.30827,0 -0.19726,-23.437204 z m 35.48116,-20.055182 0,-40.206824 -2.25337,1.888663 -2.25338,1.888661 0,38.318161 0,38.318161 2.25338,0 2.25337,0 0,-40.206822 z m 36.80518,12.084332 0,-26.808266 -3.0045,-2.566616 -3.00449,-2.566617 0,29.374881 0,29.374882 3.00449,0 3.0045,0 0,-26.808264 z m 30.04498,4.963784 c 0,-0.584943 -4.9575,-5.912754 -9.01349,-9.686691 -1.0328,-0.960988 -2.76827,-2.760997 -3.85673,-4.00003 -1.08838,-1.239032 -2.27139,-2.006928 -2.62894,-1.70643 -0.77448,0.650995 -1.34113,31.288704 -0.6392,34.562118 0.48568,2.264995 0.51933,2.232074 8.31307,-8.139236 4.30387,-5.727383 7.82529,-10.690766 7.82529,-11.029731 z"
     id="path2818"
     sodipodi:nodetypes="csssssssscccsssssssssssssssssssssssssscccccccscccssscccccscccsssscccsssssssssccccccccccccccsssssssssssssscccscccsssssscccccscccccssscccccssssssscccccsssssssssssszssssscccsssssssssssssssssssssscccsssssscccscccccscccccscccccccccccccsccccsssccccsccccssccccsssccccssscccczssccccsscccccccccccsscccssssssssscccccccccccccsccscccsccscccccccscccscccsccccccccssccccccccssssssscccssscccccccccssccccccccccccscccccccsscccscccscccscccccssccccccccsccccccccccccccccccsscccccccsscccsccccsccccccscccccccccccccccccccscccsscccscccccsccccccccccccccccccccccccssscccssscc" />
</svg>
